<svg width="321" height="95" viewBox="0 0 321 95" fill="none" xmlns="http://www.w3.org/2000/svg">
<path d="M67.3931 76H58.1531V27.14H80.2031C82.4431 27.14 84.4498 27.49 86.2231 28.19C87.9964 28.89 89.4898 29.9167 90.7031 31.27C91.9631 32.5767 92.9198 34.1633 93.5731 36.03C94.2731 37.8967 94.6231 39.9733 94.6231 42.26C94.6231 45.62 93.8531 48.5133 92.3131 50.94C90.8198 53.3667 88.5564 55.0933 85.5231 56.12L95.5331 76H85.2431L76.1431 57.17H67.3931V76ZM79.2931 49.4C81.0664 49.4 82.4664 48.9333 83.4931 48C84.5198 47.02 85.0331 45.6433 85.0331 43.87V40.65C85.0331 38.8767 84.5198 37.5233 83.4931 36.59C82.4664 35.6567 81.0664 35.19 79.2931 35.19H67.3931V49.4H79.2931ZM130.274 76C128.314 76 126.751 75.44 125.584 74.32C124.464 73.1533 123.764 71.6133 123.484 69.7H123.064C122.457 72.08 121.221 73.8767 119.354 75.09C117.487 76.2567 115.177 76.84 112.424 76.84C108.691 76.84 105.821 75.86 103.814 73.9C101.807 71.94 100.804 69.3267 100.804 66.06C100.804 62.28 102.157 59.48 104.864 57.66C107.571 55.7933 111.421 54.86 116.414 54.86H122.644V52.2C122.644 50.1467 122.107 48.56 121.034 47.44C119.961 46.32 118.234 45.76 115.854 45.76C113.754 45.76 112.051 46.2267 110.744 47.16C109.484 48.0467 108.411 49.12 107.524 50.38L102.204 45.62C103.557 43.52 105.354 41.84 107.594 40.58C109.834 39.2733 112.797 38.62 116.484 38.62C121.431 38.62 125.187 39.74 127.754 41.98C130.321 44.22 131.604 47.44 131.604 51.64V68.86H135.244V76H130.274ZM115.434 70.33C117.441 70.33 119.144 69.8867 120.544 69C121.944 68.1133 122.644 66.8067 122.644 65.08V60.25H116.904C112.237 60.25 109.904 61.7433 109.904 64.73V65.92C109.904 67.4133 110.371 68.5333 111.304 69.28C112.284 69.98 113.661 70.33 115.434 70.33ZM140.815 54.16C140.815 50.8 141.119 47.5567 141.725 44.43C142.379 41.3033 143.242 38.41 144.315 35.75C145.435 33.0433 146.742 30.5933 148.235 28.4C149.729 26.2067 151.362 24.34 153.135 22.8H161.605C159.692 24.5733 157.965 26.5333 156.425 28.68C154.932 30.8267 153.649 33.1367 152.575 35.61C151.502 38.0367 150.662 40.6033 150.055 43.31C149.495 46.0167 149.215 48.7933 149.215 51.64V56.82C149.215 59.7133 149.495 62.5367 150.055 65.29C150.662 67.9967 151.502 70.5867 152.575 73.06C153.695 75.4867 155.002 77.7733 156.495 79.92C158.035 82.0667 159.739 83.98 161.605 85.66H153.135C151.409 84.2133 149.799 82.3933 148.305 80.2C146.812 78.0067 145.505 75.5567 144.385 72.85C143.265 70.0967 142.379 67.1567 141.725 64.03C141.119 60.8567 140.815 57.5667 140.815 54.16ZM317.093 54.16C317.093 57.5667 316.766 60.8567 316.113 64.03C315.506 67.1567 314.643 70.0967 313.523 72.85C312.403 75.5567 311.096 78.0067 309.603 80.2C308.11 82.3933 306.5 84.2133 304.773 85.66H296.303C298.17 83.98 299.85 82.0667 301.343 79.92C302.883 77.7733 304.19 75.4867 305.263 73.06C306.383 70.5867 307.223 67.9967 307.783 65.29C308.39 62.5367 308.693 59.7133 308.693 56.82V51.64C308.693 48.7933 308.39 46.0167 307.783 43.31C307.223 40.6033 306.406 38.0367 305.333 35.61C304.26 33.1367 302.953 30.8267 301.413 28.68C299.92 26.5333 298.216 24.5733 296.303 22.8H304.773C306.546 24.34 308.18 26.2067 309.673 28.4C311.166 30.5933 312.45 33.0433 313.523 35.75C314.643 38.41 315.506 41.3033 316.113 44.43C316.766 47.5567 317.093 50.8 317.093 54.16Z" fill="white"/>
<path d="M166.639 27.14H184.419C187.593 27.14 190.463 27.6533 193.029 28.68C195.643 29.7067 197.859 31.2467 199.679 33.3C201.546 35.3067 202.969 37.85 203.949 40.93C204.976 43.9633 205.489 47.51 205.489 51.57C205.489 55.63 204.976 59.2 203.949 62.28C202.969 65.3133 201.546 67.8567 199.679 69.91C197.859 71.9167 195.643 73.4333 193.029 74.46C190.463 75.4867 187.593 76 184.419 76H166.639V27.14ZM184.419 67.81C187.873 67.81 190.603 66.8067 192.609 64.8C194.663 62.7467 195.689 59.62 195.689 55.42V47.72C195.689 43.52 194.663 40.4167 192.609 38.41C190.603 36.3567 187.873 35.33 184.419 35.33H175.879V67.81H184.419ZM214.901 76V27.14H247.101V35.33H224.141V47.16H244.441V55.35H224.141V67.81H247.101V76H214.901ZM295.724 76H284.944L273.744 57.24H273.534L262.474 76H252.394L268.214 50.94L253.094 27.14H263.874L274.234 44.5H274.444L284.944 27.14H295.024L279.764 50.94L295.724 76Z" fill="#00C389"/>
<path d="M27.2408 52.1C26.06 52.1 24.9402 51.5656 24.24 50.6488L9.56714 31.4357H0V24.4386H11.4602C12.6498 24.4386 13.7661 24.9785 14.4622 25.8898L26.4495 41.5865L44.7438 2.09535C45.3342 0.822453 46.6642 7.62939e-06 48.1352 7.62939e-06H71V6.99711H50.5555L30.6323 50.0047C30.0993 51.1547 28.9551 51.9475 27.6338 52.0803C27.5026 52.0934 27.3708 52.1 27.2408 52.1Z" fill="#00C389"/>
<rect x="68" width="247" height="7" fill="#00C389"/>
</svg>
