<svg width="188" height="49" viewBox="0 0 188 49" fill="none" xmlns="http://www.w3.org/2000/svg">
<g clip-path="url(#clip0_420_2)">
<path d="M44.1738 19.7112H56.8716C60.4538 19.7112 63.2627 20.769 65.0938 22.5601C66.6005 24.1067 67.4538 26.2223 67.4538 28.7067V28.7867C67.4538 33.4667 64.6449 36.2756 60.6983 37.4134L68.3916 48.2001H62.4449L55.4449 38.2712H49.1783V48.2001H44.1738V19.7112ZM56.5027 33.8312C60.0849 33.8312 62.3649 31.9601 62.3649 29.0712V28.9912C62.3649 25.9379 60.1694 24.2712 56.4627 24.2712H49.1783V33.8356H56.5027V33.8312Z" fill="white"/>
<path d="M87.7599 19.5066H92.3999L104.933 48.1999H99.6444L96.7555 41.3199H83.2843L80.3555 48.1999H75.2266L87.7599 19.5066ZM94.9244 36.8844L89.9999 25.4888L85.1155 36.8844H94.9244Z" fill="white"/>
<path d="M113.076 19.7112H123.698C132.654 19.7112 138.836 25.8578 138.836 33.8756V33.9556C138.836 41.9734 132.65 48.2001 123.698 48.2001H113.076V19.7112ZM118.081 24.2667V43.6401H123.698C129.681 43.6401 133.587 39.6134 133.587 34.0356V33.9556C133.587 28.3823 129.681 24.2712 123.698 24.2712H118.081V24.2667Z" fill="white"/>
<path d="M152.631 19.7112H147.627V48.2001H152.631V19.7112Z" fill="white"/>
<path d="M187.593 19.7112L177.664 33.6267L188.002 48.1956H182.099L174.57 37.3334L167.082 48.1956H161.344L171.642 33.7112L161.753 19.7112H167.655L174.735 30.0445L181.855 19.7112H187.593Z" fill="white"/>
<path d="M20.8533 42.2044C19.9511 42.2044 19.0933 41.7733 18.5556 41.0311L7.32445 25.4667H0V19.8H8.77333C9.68445 19.8 10.5378 20.2356 11.0711 20.9733L20.2489 33.6889L34.2533 1.69778C34.7067 0.666667 35.7245 0 36.8489 0H54.3556V5.66667H38.7022L23.4489 40.5067C23.04 41.44 22.1644 42.08 21.1511 42.1867C21.0578 42.2 20.9556 42.2044 20.8533 42.2044Z" fill="#00C389"/>
</g>
<defs>
<clipPath id="clip0_420_2">
<rect width="188" height="48.4444" fill="white"/>
</clipPath>
</defs>
</svg>
